<svg xmlns="http://www.w3.org/2000/svg" viewBox="0 0 512 512"><path d="M248.8 185.993l-104.36-60.251a8.104 8.104 0 0 0-11.068 2.965L63.023 250.554c-13.009 22.532-5.261 51.447 17.27 64.456l11.318 6.534-42.424 73.481-14.714-8.494a22.2 22.2 0 0 0-11.087-2.976c-7.914 0-15.287 4.254-19.242 11.103l-1.173 2.033c-6.123 10.602-2.477 24.207 8.125 30.331l43.46 25.09a22.205 22.205 0 0 0 11.088 2.977c7.915 0 15.287-4.254 19.24-11.102l1.175-2.036c6.121-10.601 2.476-24.207-8.126-30.33l-14.713-8.494 42.424-73.481 11.315 6.533a47.176 47.176 0 0 0 23.246 6.32c.104.001.206.01.31.01h.004c16.82 0 32.492-9.043 40.896-23.599l70.348-121.848a8.099 8.099 0 0 0-2.963-11.069zM69.83 425.654a6.005 6.005 0 0 1 2.197 8.193l-1.176 2.037a6.025 6.025 0 0 1-5.207 3 5.902 5.902 0 0 1-2.986-.806L19.2 412.989a6.005 6.005 0 0 1-2.195-8.195l1.174-2.034a6.025 6.025 0 0 1 5.208-3c1.055 0 2.059.27 2.985.805l21.729 12.544.001.001h.001l21.727 12.544zm97.554-114.848a30.768 30.768 0 0 1-3.581 4.979c-5.824 6.596-14.304 10.517-23.284 10.517a30.967 30.967 0 0 1-15.455-4.159l-18.327-10.578c-.002-.001-.003-.003-.005-.003l-.006-.003-18.33-10.582c-14.793-8.541-19.88-27.526-11.339-42.321l15.311-26.517h120.434l-45.418 78.667zm54.773-94.872H101.723l41.633-72.109 90.325 52.149-11.524 19.96zM509.03 396.695l-1.175-2.037c-3.953-6.849-11.326-11.102-19.241-11.102a22.2 22.2 0 0 0-11.087 2.976l-14.715 8.495-42.425-73.481 11.317-6.534c22.532-13.01 30.28-41.925 17.271-64.456l-37.556-65.048c-2.236-3.876-7.195-5.202-11.068-2.965a8.102 8.102 0 0 0-2.965 11.068l12.89 22.327H289.843l-11.524-19.96 90.326-52.149 15.946 27.619a8.103 8.103 0 0 0 14.033-8.103l-19.997-34.637c-2.236-3.876-7.194-5.201-11.068-2.965l-104.361 60.252a8.102 8.102 0 0 0-2.965 11.068l17.91 31.022.002.005 52.435 90.821a48.601 48.601 0 0 0 1.534 2.463c.107.162.218.321.327.481a47.534 47.534 0 0 0 1.635 2.269c6.283 8.184 15.023 14.057 25.156 16.773a47.446 47.446 0 0 0 12.288 1.628c8.176-.001 16.247-2.146 23.517-6.344l11.315-6.533 42.425 73.481-14.712 8.493c-10.601 6.121-14.247 19.726-8.127 30.331l1.175 2.035c3.955 6.848 11.328 11.102 19.242 11.102 3.881 0 7.717-1.03 11.088-2.977l43.463-25.092c10.601-6.123 14.245-19.729 8.124-30.326zm-103.76-85.132l-.001.001-.001.001-18.332 10.579c-.54.312-1.092.603-1.648.882-.13.065-.261.126-.392.19-.475.229-.955.448-1.441.654-.086.037-.172.075-.258.11a30.855 30.855 0 0 1-11.669 2.323l-.071.001a30.787 30.787 0 0 1-3.982-.264l-.228-.032a30.361 30.361 0 0 1-1.757-.295l-.177-.034a31.153 31.153 0 0 1-18.404-11.453l-.017-.023a30.268 30.268 0 0 1-1.055-1.466c-.069-.103-.14-.204-.21-.308a29.688 29.688 0 0 1-1.009-1.62L299.2 232.141h120.434l15.311 26.517c8.541 14.794 3.454 33.779-11.34 42.321l-18.335 10.584zm87.533 101.426l-43.463 25.09a5.89 5.89 0 0 1-2.985.806 6.024 6.024 0 0 1-5.208-3.002l-1.174-2.032a6.01 6.01 0 0 1 2.195-8.196l43.459-25.091a5.892 5.892 0 0 1 2.985-.805 6.022 6.022 0 0 1 5.206 2.998l1.175 2.039a6.002 6.002 0 0 1-2.19 8.193zM264.105 117.891V65.013a8.1 8.1 0 0 0-8.102-8.102 8.102 8.102 0 0 0-8.102 8.102v52.877a8.102 8.102 0 0 0 8.102 8.102 8.1 8.1 0 0 0 8.102-8.101zm-55.619 8.424a8.098 8.098 0 0 0 10.986 3.256 8.103 8.103 0 0 0 3.255-10.987l-25.226-46.471a8.102 8.102 0 1 0-14.241 7.731l25.226 46.471zm84.041 3.256a8.102 8.102 0 0 0 10.987-3.256l25.227-46.471a8.103 8.103 0 0 0-14.243-7.731l-25.227 46.471a8.104 8.104 0 0 0 3.256 10.987z"/></svg>