<svg xmlns="http://www.w3.org/2000/svg" viewBox="0 0 512 512"><path d="M256 246c-5.52 0-10 4.48-10 10s4.48 10 10 10 10-4.48 10-10-4.48-10-10-10zm100 0h-59.88c-5.523 0-10 4.477-10 10s4.477 10 10 10H356c5.523 0 10-4.477 10-10s-4.477-10-10-10zm-139.64 0H156c-5.523 0-10 4.477-10 10s4.477 10 10 10h60.36c5.523 0 10-4.477 10-10s-4.477-10-10-10z"/><path d="M436 0H76C59.458 0 46 13.458 46 30v452c0 16.542 13.458 30 30 30h360c16.542 0 30-13.458 30-30V30c0-16.542-13.458-30-30-30zm10 482c0 5.514-4.486 10-10 10H76c-5.514 0-10-4.486-10-10V30c0-5.514 4.486-10 10-10h360c5.514 0 10 4.486 10 10v452z"/><path d="M396 306H116c-5.523 0-10 4.477-10 10s4.477 10 10 10h280c5.523 0 10-4.477 10-10s-4.477-10-10-10zm-40 60H156c-5.523 0-10 4.477-10 10s4.477 10 10 10h200c5.523 0 10-4.477 10-10s-4.477-10-10-10zm-60 63h-80c-5.523 0-10 4.477-10 10s4.477 10 10 10h80c5.523 0 10-4.477 10-10s-4.477-10-10-10zm92.019-296l16.302-24.453A10 10 0 0 0 396 93h-63.043c-6.535-18.018-22.81-30-41.957-30-17.038 0-28.133 9.096-35 18.31C249.133 72.096 238.038 63 221 63c-19.142 0-35.412 11.975-41.954 30H116a10 10 0 0 0-8.32 15.547L123.981 133l-16.302 24.453A10 10 0 0 0 116 173h100.746c4.627 3.974 9.572 8.108 14.777 12.453 5.739 4.791 11.673 9.744 17.969 15.14 1.873 1.605 4.19 2.407 6.508 2.407s4.635-.802 6.508-2.407c6.296-5.396 12.23-10.35 17.969-15.14 5.205-4.344 10.151-8.479 14.778-12.453H396a10 10 0 0 0 8.32-15.547L388.019 133zm-253.334 20l9.635-14.453a9.998 9.998 0 0 0 0-11.094L134.685 113h41.374c.736 15.591 8.544 28.321 19.309 40h-60.683zm132.976 17.099c-3.783 3.157-7.65 6.385-11.661 9.773a2521.732 2521.732 0 0 0-11.661-9.773C215.003 145.614 196 129.818 196 110.58 196 95.911 205.81 83 221 83c18.561 0 25.113 21.813 25.37 22.696a10.001 10.001 0 0 0 19.26 0C265.693 105.469 272.202 83 291 83c15.21 0 25 12.93 25 27.58 0 19.496-19.44 35.398-48.339 59.519zM316.594 153c10.385-11.246 18.583-24.051 19.342-40h41.378l-9.635 14.453a9.998 9.998 0 0 0 0 11.094L377.315 153h-60.721z"/></svg>