<svg xmlns="http://www.w3.org/2000/svg" viewBox="0 0 512.002 512.002"><path d="M512 32.551c.092-8.628-3.339-17.061-9.414-23.136C496.514 3.344 488.421 0 479.796 0c-8.676 0-16.711 3.398-22.624 9.568l-22.199 23.171-9.136 9.674-95.782-29.179a9.996 9.996 0 0 0-9.985 2.495l-20.327 20.326a10 10 0 0 0 1.905 15.633l73.01 44.062-14.38 15.101c-38.98-30.013-87.078-46.445-136.48-46.445-59.778 0-115.979 23.279-158.249 65.549C23.279 172.225 0 228.425 0 288.203c0 59.779 23.279 115.98 65.549 158.25 42.27 42.27 98.471 65.549 158.249 65.549 59.778 0 115.978-23.279 158.248-65.549s65.549-98.471 65.549-158.25c0-13.089-1.155-26.086-3.409-38.848a10.013 10.013 0 0 0-.375-2.007c-6.448-34.66-21.018-67.513-42.659-95.623l15.101-14.381 44.06 73.01a10 10 0 0 0 7.353 4.76 10.028 10.028 0 0 0 8.279-2.855l20.328-20.326a10 10 0 0 0 2.501-9.968l-29.007-95.839 32.666-31.296c6.078-5.823 9.475-13.735 9.567-22.279zM163.433 482.875C80.438 457.086 20 379.57 20 288.203c0-27.59 5.522-53.91 15.501-77.932 12.626 9.002 31.606 10.486 48.951 11.834 30.756 2.39 40.938 5.262 40.629 17.552-.28 11.143-12.283 20.461-24.992 30.326-17.757 13.783-39.856 30.937-33.229 59.978 6.781 29.724 30.492 31.073 49.545 32.157 11.7.665 23.799 1.354 34.816 6.918 11.926 6.022 20.948 17.195 25.406 31.461 4.986 15.958 6.462 42.928-13.194 82.378zm264.161-194.673c.001 70.363-35.844 132.508-90.229 169.144-14.09-18.331-12.719-27.401-11.144-37.728 1.205-7.9 2.571-16.855-1.635-28.578-4.319-12.034-13.88-24.936-30.078-40.585l-2.188-2.343c-10.416-11.139-18.644-19.937-20.241-28.686-1.04-5.698-.322-15.549 17.848-35.233 4.73-5.123 9.112-7.676 13.399-7.805 8.998-.246 19.712 9.995 29.136 19.053 12.539 12.051 26.751 25.708 42.203 16.578 10.463-6.183 15.845-17.736 21.049-28.91 8.462-18.166 13.727-27.636 29.657-24.813a203.294 203.294 0 0 1 2.223 29.906zm-6.349-50.37c-26.179-.682-36.477 21.408-43.661 36.833-4.098 8.798-7.968 17.107-13.093 20.136-.121.071-.177.087-.177.087-.018-.006-1.454.103-5.232-2.567-3.811-2.695-8.159-6.874-12.763-11.299-12.264-11.785-26.124-25.146-43.593-24.624-9.8.293-19.052 5.081-27.496 14.23-18.704 20.263-25.744 36.421-22.827 52.393 2.653 14.527 13.151 25.754 25.308 38.754l2.349 2.515c.122.13.247.257.375.381 29.584 28.529 27.93 39.375 26.014 51.934-1.85 12.128-4.085 26.905 13.736 51.122-28.716 15.48-61.543 24.277-96.389 24.277a204.096 204.096 0 0 1-40.593-4.068c20.601-43.386 18.432-74.469 12.514-93.404-6.085-19.472-18.686-34.867-35.48-43.349-14.737-7.441-29.591-8.287-42.696-9.032-20.616-1.174-27.913-2.309-31.182-16.639-3.535-15.492 7.462-25.345 25.994-39.73 15.095-11.717 32.204-24.997 32.723-45.623.263-10.441-3.241-24.404-21.425-31.631-10.752-4.272-24.426-5.335-37.648-6.362-17.168-1.334-34.845-2.715-41.511-10.756C79 127.741 146.433 84.406 223.798 84.406c43.363 0 85.623 13.898 120.402 39.376l-22.199-1.597a10.06 10.06 0 0 0-7.788 2.903l-17.109 17.109a10.002 10.002 0 0 0 2.689 16.06l36.269 17.683 17.684 36.268a9.999 9.999 0 0 0 16.059 2.689l17.108-17.107a10 10 0 0 0 2.903-7.788l-1.597-22.201c15.434 21.071 26.606 44.89 33.026 70.031zm67.352-197.443L451.5 75.93a9.997 9.997 0 0 0-2.653 10.117l29.049 95.979-7.06 7.059-43.897-72.739a9.999 9.999 0 0 0-15.458-2.074l-40.723 38.781a10 10 0 0 0-3.078 7.958l1.86 25.868-3.963 3.963-13.049-26.763a9.997 9.997 0 0 0-4.607-4.605l-26.761-13.047 3.963-3.964 25.868 1.86a10.051 10.051 0 0 0 7.959-3.078l38.779-40.723a10 10 0 0 0-2.074-15.458l-72.739-43.897 7.051-7.05 95.97 29.235a10 10 0 0 0 10.185-2.7l13.342-14.128 22.148-23.118c2.104-2.196 5.011-3.405 8.184-3.405 3.235 0 6.387 1.297 8.648 3.558 2.296 2.296 3.593 5.496 3.558 8.779-.034 3.12-1.243 5.979-3.405 8.051z"/><path d="M157.226 121.961c-2.336-5.003-8.286-7.167-13.291-4.831a188.284 188.284 0 0 0-53.637 37.574c-3.905 3.906-3.905 10.237 0 14.143a9.972 9.972 0 0 0 7.071 2.929 9.97 9.97 0 0 0 7.071-2.929 168.289 168.289 0 0 1 47.955-33.594c5.004-2.337 7.167-8.287 4.831-13.292z"/><circle cx="177" cy="114" r="10"/></svg>