<svg 
version="1.1" 
id="venue-icon" 
xmlns="http://www.w3.org/2000/svg" 
xmlns:xlink="http://www.w3.org/1999/xlink" x="0px" y="0px"
viewBox="0 0 512 512" 
style="enable-background:new 0 0 512 512;" 
xml:space="preserve">
   <path d="M248.8,185.993L144.44,125.742c-3.875-2.235-8.83-0.911-11.068,2.965L63.023,250.554
      c-13.009,22.532-5.261,51.447,17.27,64.456l11.318,6.534l-42.424,73.481l-14.714-8.494c-3.373-1.948-7.207-2.976-11.087-2.976
      c-7.914,0-15.287,4.254-19.242,11.103l-1.173,2.033c-6.123,10.602-2.477,24.207,8.125,30.331l43.46,25.09
      c3.373,1.948,7.208,2.977,11.088,2.977c7.915,0,15.287-4.254,19.24-11.102l1.175-2.036c6.121-10.601,2.476-24.207-8.126-30.33
      l-14.713-8.494l42.424-73.481l11.315,6.533c7.08,4.089,15.111,6.265,23.246,6.32c0.104,0.001,0.206,0.01,0.31,0.01
      c0.002,0,0.002,0,0.004,0c16.82,0,32.492-9.043,40.896-23.599l70.348-121.848C254.004,193.186,252.676,188.231,248.8,185.993z
         M69.83,425.654c2.865,1.654,3.85,5.33,2.197,8.193l-1.176,2.037c-1.068,1.851-3.064,3-5.207,3c-1.055,0-2.059-0.271-2.986-0.806
      L19.2,412.989c-2.865-1.654-3.849-5.33-2.195-8.195l1.174-2.034c1.068-1.851,3.064-3,5.208-3c1.055,0,2.059,0.27,2.985,0.805
      l21.729,12.544l0.001,0.001h0.001L69.83,425.654z M167.384,310.806c-1.035,1.792-2.237,3.457-3.581,4.979
      c-5.824,6.596-14.304,10.517-23.284,10.517c-5.4-0.001-10.745-1.439-15.455-4.159l-18.327-10.578
      c-0.002-0.001-0.003-0.003-0.005-0.003c-0.002-0.001-0.004-0.002-0.006-0.003l-18.33-10.582
      c-14.793-8.541-19.88-27.526-11.339-42.321l15.311-26.517h120.434L167.384,310.806z M222.157,215.934H101.723l41.633-72.109
      l90.325,52.149L222.157,215.934z"/>
   <path d="M509.03,396.695l-1.175-2.037c-3.953-6.849-11.326-11.102-19.241-11.102c-3.88,0-7.714,1.028-11.087,2.976l-14.715,8.495
      l-42.425-73.481l11.317-6.534c22.532-13.01,30.28-41.925,17.271-64.456l-37.556-65.048c-2.236-3.876-7.195-5.202-11.068-2.965
      c-3.875,2.237-5.203,7.193-2.965,11.068l12.89,22.327H289.843l-11.524-19.96l90.326-52.149l15.946,27.619
      c2.238,3.875,7.194,5.202,11.068,2.965c3.875-2.237,5.203-7.193,2.965-11.068l-19.997-34.637
      c-2.236-3.876-7.194-5.201-11.068-2.965l-104.361,60.252c-3.875,2.237-5.203,7.193-2.965,11.068l17.91,31.022
      c0.001,0.002,0.001,0.003,0.002,0.005l52.435,90.821c0.486,0.842,1.003,1.658,1.534,2.463c0.107,0.162,0.218,0.321,0.327,0.481
      c0.511,0.753,1.04,1.49,1.589,2.207c0.015,0.021,0.03,0.041,0.046,0.062c6.283,8.184,15.023,14.057,25.156,16.773
      c4.065,1.089,8.189,1.628,12.288,1.628c8.176-0.001,16.247-2.146,23.517-6.344l11.315-6.533l42.425,73.481l-14.712,8.493
      c-10.601,6.121-14.247,19.726-8.127,30.331l1.175,2.035c3.955,6.848,11.328,11.102,19.242,11.102
      c3.881,0,7.717-1.03,11.088-2.977l43.463-25.092C511.507,420.898,515.151,407.292,509.03,396.695z M405.27,311.563
      c0,0-0.001,0-0.001,0.001l-0.001,0.001l-18.332,10.579c-0.54,0.312-1.092,0.603-1.648,0.882c-0.13,0.065-0.261,0.126-0.392,0.19
      c-0.475,0.229-0.955,0.448-1.441,0.654c-0.086,0.037-0.172,0.075-0.258,0.11c-3.702,1.521-7.67,2.317-11.669,2.323
      c-0.024,0-0.048,0.001-0.071,0.001c-1.342-0.001-2.67-0.092-3.982-0.264c-0.076-0.01-0.152-0.022-0.228-0.032
      c-0.59-0.082-1.175-0.179-1.757-0.295c-0.059-0.012-0.119-0.022-0.177-0.034c-7.279-1.484-13.845-5.549-18.404-11.453
      c-0.005-0.008-0.012-0.015-0.017-0.023c-0.366-0.475-0.716-0.967-1.055-1.466c-0.069-0.103-0.14-0.204-0.21-0.308
      c-0.351-0.528-0.69-1.066-1.009-1.62l-45.418-78.668h120.434l15.311,26.517c8.541,14.794,3.454,33.779-11.34,42.321
      L405.27,311.563z M492.803,412.989l-43.463,25.09c-0.925,0.535-1.929,0.806-2.985,0.806c-2.143,0-4.14-1.149-5.208-3.002
      l-1.174-2.032c-1.653-2.865-0.668-6.542,2.195-8.196l43.459-25.091c0.926-0.535,1.929-0.805,2.985-0.805
      c2.143,0,4.139,1.148,5.206,2.998l1.175,2.039C496.65,407.659,495.665,411.335,492.803,412.989z"/>
   <path d="M264.105,117.891V65.013c0-4.476-3.627-8.102-8.102-8.102c-4.475,0-8.102,3.627-8.102,8.102v52.877
      c0,4.476,3.628,8.102,8.102,8.102C260.478,125.993,264.105,122.366,264.105,117.891z"/>
   <path d="M208.486,126.315c1.468,2.705,4.252,4.238,7.128,4.238c1.305,0,2.631-0.315,3.858-0.982
      c3.932-2.136,5.39-7.053,3.255-10.987l-25.226-46.471c-2.135-3.933-7.053-5.391-10.986-3.256
      c-3.932,2.136-5.39,7.053-3.255,10.987L208.486,126.315z"/>
   <path d="M292.527,129.571c1.228,0.667,2.553,0.982,3.858,0.982c2.875,0,5.66-1.533,7.129-4.238l25.227-46.471
      c2.135-3.933,0.677-8.851-3.256-10.987c-3.932-2.135-8.851-0.677-10.987,3.256l-25.227,46.471
      C287.137,122.518,288.594,127.436,292.527,129.571z"/>
</svg>