<svg 
version="1.1" 
id="date-icon" 
xmlns="http://www.w3.org/2000/svg" 
xmlns:xlink="http://www.w3.org/1999/xlink" 
x="0px" y="0px"
viewBox="0 0 512 512" 
style="enable-background:new 0 0 512 512;" 
xml:space="preserve">
   <path d="M256,246c-5.52,0-10,4.48-10,10c0,5.52,4.48,10,10,10s10-4.48,10-10C266,250.48,261.52,246,256,246z"/>
   <path d="M356,246h-59.88c-5.523,0-10,4.477-10,10s4.477,10,10,10H356c5.523,0,10-4.477,10-10S361.523,246,356,246z"/>
   <path d="M216.36,246H156c-5.523,0-10,4.477-10,10s4.477,10,10,10h60.36c5.523,0,10-4.477,10-10S221.883,246,216.36,246z"/>
   <path d="M436,0H76C59.458,0,46,13.458,46,30v452c0,16.542,13.458,30,30,30h360c16.542,0,30-13.458,30-30V30
      C466,13.458,452.542,0,436,0z M446,482c0,5.514-4.486,10-10,10H76c-5.514,0-10-4.486-10-10V30c0-5.514,4.486-10,10-10h360
      c5.514,0,10,4.486,10,10V482z"/>
   <path d="M396,306H116c-5.523,0-10,4.477-10,10s4.477,10,10,10h280c5.523,0,10-4.477,10-10S401.523,306,396,306z"/>
   <path d="M356,366H156c-5.523,0-10,4.477-10,10s4.477,10,10,10h200c5.523,0,10-4.477,10-10S361.523,366,356,366z"/>
   <path d="M296,429h-80c-5.523,0-10,4.477-10,10s4.477,10,10,10h80c5.523,0,10-4.477,10-10S301.523,429,296,429z"/>
   <path d="M388.019,133l16.302-24.453c2.046-3.068,2.237-7.014,0.497-10.266C403.077,95.03,399.688,93,396,93h-63.043
      c-6.535-18.018-22.81-30-41.957-30c-17.038,0-28.133,9.096-35,18.31C249.133,72.096,238.038,63,221,63
      c-19.142,0-35.412,11.975-41.954,30H116c-3.688,0-7.077,2.03-8.817,5.281c-1.74,3.252-1.549,7.197,0.497,10.266L123.981,133
      l-16.302,24.453c-2.045,3.068-2.236,7.014-0.496,10.266c1.74,3.251,5.129,5.281,8.817,5.281h100.746
      c4.627,3.974,9.572,8.108,14.777,12.453c5.739,4.791,11.673,9.744,17.969,15.14c1.873,1.605,4.19,2.407,6.508,2.407
      s4.635-0.802,6.508-2.407c6.296-5.396,12.23-10.35,17.969-15.14c5.205-4.344,10.151-8.479,14.778-12.453H396
      c3.688,0,7.077-2.03,8.817-5.281c1.74-3.252,1.549-7.197-0.497-10.266L388.019,133z M134.685,153l9.635-14.453
      c2.24-3.359,2.24-7.735,0-11.094L134.685,113h41.374c0.736,15.591,8.544,28.321,19.309,40H134.685z M267.661,170.099
      c-3.783,3.157-7.65,6.385-11.661,9.773c-4.011-3.388-7.878-6.616-11.661-9.773C215.003,145.614,196,129.818,196,110.58
      C196,95.911,205.81,83,221,83c18.561,0,25.113,21.813,25.37,22.696c1.209,4.318,5.146,7.304,9.63,7.304s8.42-2.985,9.63-7.304
      C265.693,105.469,272.202,83,291,83c15.21,0,25,12.93,25,27.58C316,130.076,296.56,145.978,267.661,170.099z M316.594,153
      c10.385-11.246,18.583-24.051,19.342-40h41.378l-9.635,14.453c-2.24,3.359-2.24,7.735,0,11.094L377.315,153H316.594z"/>
</svg>