<svg 
version="1.1" 
id="destination-icon" 
xmlns="http://www.w3.org/2000/svg" 
xmlns:xlink="http://www.w3.org/1999/xlink" 
x="0px" 
y="0px"
viewBox="0 0 512.002 512.002" 
style="enable-background:new 0 0 512.002 512.002;" 
xml:space="preserve">
   <path d="M512,32.551c0.092-8.628-3.339-17.061-9.414-23.136C496.514,3.344,488.421,0,479.796,0
      c-8.676,0-16.711,3.398-22.624,9.568l-22.199,23.171l-9.136,9.674l-95.782-29.179c-3.535-1.077-7.373-0.118-9.985,2.495
      l-20.327,20.326c-2.174,2.174-3.228,5.228-2.855,8.28c0.372,3.053,2.127,5.764,4.76,7.353l73.01,44.062l-14.38,15.101
      c-38.98-30.013-87.078-46.445-136.48-46.445c-59.778,0-115.979,23.279-158.249,65.549C23.279,172.225,0,228.425,0,288.203
      c0,59.779,23.279,115.98,65.549,158.25c42.27,42.27,98.471,65.549,158.249,65.549c59.778,0,115.978-23.279,158.248-65.549
      s65.549-98.471,65.549-158.25c0-13.089-1.155-26.086-3.409-38.848c-0.058-0.685-0.182-1.357-0.375-2.007
      c-6.448-34.66-21.018-67.513-42.659-95.623l15.101-14.381l44.06,73.01c1.589,2.633,4.3,4.388,7.353,4.76
      c3.044,0.365,6.105-0.681,8.279-2.855l20.328-20.326c2.608-2.607,3.569-6.438,2.501-9.968l-29.007-95.839l32.666-31.296
      C508.511,49.007,511.908,41.095,512,32.551z M163.433,482.875C80.438,457.086,20,379.57,20,288.203
      c0-27.59,5.522-53.91,15.501-77.932c12.626,9.002,31.606,10.486,48.951,11.834c30.756,2.39,40.938,5.262,40.629,17.552
      c-0.28,11.143-12.283,20.461-24.992,30.326c-17.757,13.783-39.856,30.937-33.229,59.978c6.781,29.724,30.492,31.073,49.545,32.157
      c11.7,0.665,23.799,1.354,34.816,6.918c11.926,6.022,20.948,17.195,25.406,31.461
      C181.613,416.455,183.089,443.425,163.433,482.875z M427.594,288.202c0.001,70.363-35.844,132.508-90.229,169.144
      c-14.09-18.331-12.719-27.401-11.144-37.728c1.205-7.9,2.571-16.855-1.635-28.578c-4.319-12.034-13.88-24.936-30.078-40.585
      l-2.188-2.343c-10.416-11.139-18.644-19.937-20.241-28.686c-1.04-5.698-0.322-15.549,17.848-35.233
      c4.73-5.123,9.112-7.676,13.399-7.805c8.998-0.246,19.712,9.995,29.136,19.053c12.539,12.051,26.751,25.708,42.203,16.578
      c10.463-6.183,15.845-17.736,21.049-28.91c8.462-18.166,13.727-27.636,29.657-24.813
      C426.837,268.153,427.594,278.148,427.594,288.202z M421.245,237.832c-26.179-0.682-36.477,21.408-43.661,36.833
      c-4.098,8.798-7.968,17.107-13.093,20.136c-0.121,0.071-0.177,0.087-0.177,0.087c-0.018-0.006-1.454,0.103-5.232-2.567
      c-3.811-2.695-8.159-6.874-12.763-11.299c-12.264-11.785-26.124-25.146-43.593-24.624c-9.8,0.293-19.052,5.081-27.496,14.23
      c-18.704,20.263-25.744,36.421-22.827,52.393c2.653,14.527,13.151,25.754,25.308,38.754l2.349,2.515
      c0.122,0.13,0.247,0.257,0.375,0.381c29.584,28.529,27.93,39.375,26.014,51.934c-1.85,12.128-4.085,26.905,13.736,51.122
      c-28.716,15.48-61.543,24.277-96.389,24.277c-13.896-0.002-27.47-1.405-40.593-4.068c20.601-43.386,18.432-74.469,12.514-93.404
      c-6.085-19.472-18.686-34.867-35.48-43.349c-14.737-7.441-29.591-8.287-42.696-9.032c-20.616-1.174-27.913-2.309-31.182-16.639
      c-3.535-15.492,7.462-25.345,25.994-39.73c15.095-11.717,32.204-24.997,32.723-45.623c0.263-10.441-3.241-24.404-21.425-31.631
      c-10.752-4.272-24.426-5.335-37.648-6.362c-17.168-1.334-34.845-2.715-41.511-10.756C79,127.741,146.433,84.406,223.798,84.406
      c43.363,0,85.623,13.898,120.402,39.376l-22.199-1.597c-2.877-0.198-5.735,0.851-7.788,2.903l-17.109,17.109
      c-2.285,2.286-3.325,5.535-2.791,8.723c0.533,3.188,2.575,5.921,5.48,7.337l36.269,17.683l17.684,36.268
      c1.416,2.905,4.149,4.946,7.337,5.48c0.551,0.093,1.102,0.138,1.651,0.138c2.63,0,5.181-1.038,7.071-2.929l17.108-17.107
      c2.052-2.052,3.111-4.894,2.903-7.788l-1.597-22.201C403.653,188.872,414.825,212.691,421.245,237.832z M488.597,40.389
      L451.5,75.93c-2.719,2.604-3.744,6.515-2.653,10.117l29.049,95.979l-7.06,7.059l-43.897-72.739
      c-1.566-2.596-4.227-4.341-7.231-4.744c-3.014-0.405-6.032,0.579-8.227,2.67l-40.723,38.781c-2.163,2.06-3.292,4.979-3.078,7.958
      l1.86,25.868l-3.963,3.963l-13.049-26.763c-0.979-2.006-2.6-3.628-4.607-4.605l-26.761-13.047l3.963-3.964l25.868,1.86
      c2.968,0.204,5.898-0.915,7.959-3.078l38.779-40.723c2.092-2.196,3.073-5.222,2.67-8.227c-0.403-3.005-2.148-5.665-4.744-7.231
      l-72.739-43.897l7.051-7.05l95.97,29.235c3.632,1.107,7.577,0.061,10.185-2.7l13.342-14.128l22.148-23.118
      c2.104-2.196,5.011-3.405,8.184-3.405c3.235,0,6.387,1.297,8.648,3.558c2.296,2.296,3.593,5.496,3.558,8.779
      C491.968,35.458,490.759,38.317,488.597,40.389z"/>
   <path d="M157.226,121.961c-2.336-5.003-8.286-7.167-13.291-4.831c-19.993,9.335-38.04,21.977-53.637,37.574
      c-3.905,3.906-3.905,10.237,0,14.143c1.953,1.952,4.512,2.929,7.071,2.929c2.559,0,5.119-0.977,7.071-2.929
      c13.944-13.946,30.079-25.248,47.955-33.594C157.399,132.916,159.562,126.966,157.226,121.961z"/>
   <circle cx="177" cy="114" r="10"/>
</svg>